PathFileType	4	(X/Y/Z)	Patient4_TMGait_0pt4_01_left_06.trc.trc
DataRate	CameraRate	NumFrames	NumMarkers	Units	OrigDataRate	OrigDataStartFrame	OrigNumFrames
74.866310160428	74.866310160428	4	33	mm	74.866310160428	36	       141
Frame#	Time	Sacral			L.Shoulder			Chest			R.Shoulder			Neck			R.ASIS			L.ASIS			R.Thigh.Superior			R.Thigh.Lateral			R.Thigh.Inferior			R.Patella			L.Thigh.Superior			L.Thigh.Lateral			L.Thigh.Inferior			L.Patella			L.Shank.Superior			L.Shank.Lateral			L.Shank.Inferior			R.Shank.Superior			R.Shank.Lateral			R.Shank.Inferior			R.Heel			R.Midfoot.Superior			R.Midfoot.Lateral			R.Toe			L.Heel			L.Midfoot.Lateral			L.Midfoot.Superior			L.Toe			L.Elbow			L.Wrist			R.Elbow			R.Wrist			
		X1	Y1	Z1	X2	Y2	Z2	X3	Y3	Z3	X4	Y4	Z4	X5	Y5	Z5	X6	Y6	Z6	X7	Y7	Z7	X8	Y8	Z8	X9	Y9	Z9	X10	Y10	Z10	X11	Y11	Z11	X12	Y12	Z12	X13	Y13	Z13	X14	Y14	Z14	X15	Y15	Z15	X16	Y16	Z16	X17	Y17	Z17	X18	Y18	Z18	X19	Y19	Z19	X20	Y20	Z20	X21	Y21	Z21	X22	Y22	Z22	X23	Y23	Z23	X24	Y24	Z24	X25	Y25	Z25	X26	Y26	Z26	X27	Y27	Z27	X28	Y28	Z28	X29	Y29	Z29	X30	Y30	Z30	X31	Y31	Z31	X32	Y32	Z32	X33	Y33	Z33	

36	7.087500000000	823.639583805091	1008.782702754407	494.513228380992	990.674009664063	1426.907205065056	286.401384893494	1108.419540382754	1365.082888506361	439.444086985480	1042.520857578978	1447.776139255186	617.419919470092	991.028406753561	1495.674110511044	439.397909267523	1057.194349631673	940.838515968278	594.776279674317	1027.232020293581	963.368689710190	322.208244275357	1068.437738459790	729.824288310599	572.266328160937	975.039513934131	630.928988177581	640.615272328128	1041.518293502651	565.883640890344	562.329692895641	1029.141320406897	470.177564755658	576.267097353960	1094.474038605283	762.738480875621	357.236799394931	1021.586641261822	638.539859424136	293.740252629003	1113.840801020513	568.854161027024	357.212585425684	1120.605590588284	497.905011356380	364.655608924256	1096.278896434524	425.053212054672	354.632355958474	1012.469081419124	308.657972791426	300.240283390269	1067.516668624729	196.782816982939	366.932877348759	973.526527110659	393.129378054792	584.561622770054	875.012842800083	317.442110450068	651.008826155236	887.753459529350	211.417931676322	592.580450907740	716.101231881683	73.983696979534	568.810199342964	893.327820801839	100.398763277198	603.329023704521	798.187454320741	50.368298658905	640.692950012202	1004.032466859539	37.519008806632	628.387082512685	944.678283153742	38.772984793450	402.457694294537	1019.297416195455	36.841159007316	322.744356066067	1102.144060220405	97.389109111394	350.824919019320	1230.848705691252	45.091614471059	322.249444700714	915.600999420021	1077.778089551531	188.210266484349	972.008825535188	823.494083699897	165.360327084169	1103.810234355791	1104.989708335141	735.776982812866	1307.938576547924	990.332623910968	633.381503891721	
37	7.100857142857	823.908902868614	1009.127998048808	490.408076947960	991.686514729314	1427.773202287350	283.195357458668	1108.695224011960	1365.909899474465	436.767756036910	1041.796842514627	1448.347129485049	614.477259872740	991.149540259628	1496.302887828777	436.285432309848	1057.217871736801	941.640442658172	591.490425402132	1028.479746302290	963.741497516534	318.959338707024	1071.737380710371	731.253104890429	569.936867000737	980.118111979143	631.329828632053	638.542767188538	1048.378673785278	566.717957046835	560.934770423899	1037.084394191235	469.351490395907	576.403098380506	1095.038331231486	762.247765381769	353.578958079723	1020.241551148419	638.140097680635	291.744653892777	1112.279666907382	568.019442495127	354.821395726157	1118.567220967908	497.294314308703	363.164453633926	1093.803078849108	424.428577329090	353.500646565932	1009.340671713389	308.410645537372	299.404615564632	1063.377825828251	196.461318474684	366.658987263511	979.022177004836	393.365363865588	584.399002935434	878.012057218366	320.687675564444	650.329907200936	888.630429755640	213.920062713329	592.988973230992	713.315948327452	81.548565841942	569.436158474325	891.035912473476	101.306212171218	603.737699652136	794.403182159288	54.521157338449	640.973600336902	998.959456436998	37.062376396755	628.343718890026	939.343135706812	38.832747396459	402.439979907260	1013.949688352119	36.821709784616	322.723844648841	1096.935311016652	97.272168306469	350.825334749921	1225.582122365513	44.602671642910	322.169841617966	917.778239539675	1078.301527715607	185.101123984757	977.662526970228	824.540705709037	163.765523360751	1097.575183372675	1104.686158966583	733.918282207910	1297.058641865431	976.794352152073	636.767098193640	
38	7.114214285714	824.047827834605	1009.418397319544	486.248141162240	992.849656971911	1428.630619832331	279.973135780693	1108.914187172837	1366.678955386371	434.198439025468	1040.826683909745	1448.815817439491	611.581363357104	991.215379336022	1496.884803768588	433.197751359854	1057.064987708498	942.425757219337	588.341514525002	1029.675931743203	964.015904265428	315.813172438521	1075.504394481122	732.889506906447	567.714935034589	985.963477075918	631.768244813995	636.555729059868	1056.181392250089	567.763161593525	559.642142034546	1046.013402812058	468.766945600329	576.600612927819	1095.277811801151	761.547660066748	350.173593450546	1018.798755632758	637.760855861492	289.667901381776	1110.405295180924	567.161126529738	352.602505625856	1116.175435429946	496.632133461601	361.644144514619	1091.007863058312	423.773319968784	352.285033187240	1005.926822871222	308.086243805816	298.519462374494	1059.063428616071	196.113830613911	366.315601025876	985.531315722222	393.792396403196	584.308002994146	882.034892065224	324.353374391801	649.737801584435	890.329841234293	216.899376122811	593.475412733597	711.247523760967	90.392052664168	570.150605069419	889.230487398593	102.534592933260	604.146693384571	791.029550972495	59.615692800588	641.317468044616	993.855566763394	36.542557903247	628.269892825943	933.938853390062	38.860026684758	402.419560283377	1008.540191668752	36.768880111939	322.701012844935	1091.653457626695	97.126959444562	350.828984541668	1220.254824542360	44.110367464888	322.133312668423	920.067880111780	1078.887958362629	181.788643604284	983.727773544757	825.767370136265	162.113890539894	1090.857907035807	1104.313309454955	731.958242163017	1285.016405173685	963.158911042437	640.965155140632	
39	7.127571428571	824.071155789500	1009.628673864714	482.078373581613	994.145029300499	1429.435184872201	276.762540161228	1109.073289698705	1367.354256928806	431.754144503498	1039.630300352507	1449.161648227756	608.750466746247	991.230073290145	1497.392322321197	430.150744555327	1056.748282275523	943.170069789349	585.353395203510	1030.800793341872	964.198186001059	312.779310174038	1079.691585072832	734.741994656043	565.565699053186	992.548685348802	632.266007824590	634.653768580788	1064.845157864481	569.052836645370	558.425702067215	1055.844044396946	468.488064777176	576.792484109605	1095.203780321728	760.706650902046	347.086511076588	1017.341958792062	637.428785315353	287.500842323966	1108.288683763518	566.311323876960	350.552017913028	1113.496246079808	495.934011258283	360.087389528074	1087.963071338107	423.095852384391	350.980270538318	1002.303547519486	307.699955881937	297.565133819699	1054.614057579093	195.749303388054	365.900979276171	993.003403979597	394.442310141223	584.232549560177	887.079691293338	328.449867353191	649.214690458149	892.844677414995	220.391106169468	593.998418905696	709.979595147525	100.557516165021	570.934396490513	887.933016356553	104.214775607780	604.550312341718	788.137556356142	65.756637297909	641.719209303131	988.744984703890	35.930204507597	628.175787955915	928.499862821109	38.862937641045	402.387556574856	1003.100798517312	36.693378040899	322.664114146317	1086.323394333208	96.972295474721	350.820686738147	1214.895786579114	43.646495349340	322.122247201185	922.504687910331	1079.490952470130	178.265049936232	990.187786114321	827.136130106126	160.388832388645	1083.633957595149	1103.855767253226	729.919246748412	1271.758709312096	949.629551931803	645.925431435227	
